:SAMPLES-PER-SECOND 30
:FULLY-SPECIFIED
:DEGREES
632
root  39.4735 33.1753 14.1196 148.04 72.577 52.084
RightUpLeg  -126.708 -17.5151 -5.69107
RightLeg  41.3343 -0.305308 -0.595615
RightFoot  -7.90804 -0.0864974 1.12736
RightToes  3.49245e-010 0 -3.6325e-017
Spine  -122.039 -16.3553 -9.7424
Spine1  51.0071 -7.63755 7.69585
HEad  -18.7555 4.5562 -8.59628
LeftShoulder1  0.0906657 3.26291 -31.5278
LeftArm  13.9193 -7.49257 -47.6808
LeftForeArm  21.0161 -17.9097 -6.52361
LeftHand  -0.0746298 7.06862 -2.34548
RightShoulder  -0.461654 -4.80855 28.4504
RightArm  10.4709 -4.52699 41.6135
RightForeArm  8.30556 10.8401 5.49908
RightHand  -0.113585 0.619162 -2.27737
LeftUpLeg  -99.6258 -12.4368 -17.0848
LeftLeg  57.1384 4.40792 7.80188
LeftFoot  3.50503 0.739564 -5.8319
LeftToes  -5.36635e-011 -6.70219e-011 5.24975e-011
633
root  40.8013 33.4166 14.2448 155.766 70.783 54.7193
RightUpLeg  -128.481 -19.9957 -5.23748
RightLeg  40.0364 -0.945501 -1.15587
RightFoot  -9.54566 -0.0914208 1.67722
RightToes  3.49245e-010 0 -3.6325e-017
Spine  -127.447 -20.9112 -11.0383
Spine1  51.2973 -9.16417 7.86037
HEad  -17.9754 3.08035 -8.36138
LeftShoulder1  0.0586522 3.34822 -31.5964
LeftArm  13.5121 -5.16233 -46.1102
LeftForeArm  20.2917 -17.3318 -6.94489
LeftHand  -0.0786687 7.65704 -1.73752
RightShoulder  -0.553064 -5.04985 28.9724
RightArm  13.2417 -3.87905 40.4086
RightForeArm  7.37443 13.2445 5.62672
RightHand  -0.111926 1.46712 -2.03367
LeftUpLeg  -106.388 -15.326 -18.9475
LeftLeg  56.619 3.33376 5.94395
LeftFoot  3.10793 0.660936 -5.3662
LeftToes  -5.36635e-011 -6.70219e-011 5.24975e-011
634
root  41.9872 33.8891 14.2717 158.182 71.0565 57.5817
RightUpLeg  -124.679 -20.1995 -4.91418
RightLeg  38.0603 -1.35687 -1.43302
RightFoot  -10.6551 -0.08465 2.11474
RightToes  3.49245e-010 0 -3.6325e-017
Spine  -127.04 -19.9646 -11.5532
Spine1  50.3421 -7.55078 7.22178
HEad  -16.533 1.58899 -8.39984
LeftShoulder1  0.0864213 3.27329 -31.3517
LeftArm  11.2823 -2.53257 -44.8721
LeftForeArm  20.6831 -16.5602 -7.26947
LeftHand  -0.0695501 7.36795 -1.62497
RightShoulder  -0.582762 -5.13014 29.0577
RightArm  15.487 -3.81567 39.5474
RightForeArm  5.65704 16.0289 5.26438
RightHand  -0.125573 1.53235 -2.24481
LeftUpLeg  -108.714 -15.6065 -20.2689
LeftLeg  54.5345 2.62005 4.44045
LeftFoot  2.61368 0.711501 -5.93507
LeftToes  -5.36635e-011 -6.70219e-011 5.24975e-011
635
root  43.0423 34.4657 14.326 160.423 71.202 64.0634
RightUpLeg  -117.577 -20.5902 -5.05405
RightLeg  36.8408 -1.8591 -1.78303
RightFoot  -11.9486 -0.0684632 2.46983
RightToes  3.49245e-010 0 -3.6325e-017
Spine  -121.616 -20.4636 -13.2619
Spine1  48.2197 -7.77982 8.11472
HEad  -15.2562 0.317523 -8.34704
LeftShoulder1  0.0370364 3.40478 -31.4678
LeftArm  9.52261 0.168245 -43.4785
LeftForeArm  20.7522 -16.1996 -7.30875
LeftHand  -0.0702491 6.97123 -2.16421
RightShoulder  -0.606571 -5.2077 28.8327
RightArm  18.0348 -3.85044 38.5507
RightForeArm  2.3738 19.0391 4.93989
RightHand  -0.163256 2.01368 -2.74024
LeftUpLeg  -107.177 -15.2151 -21.716
LeftLeg  50.0642 1.99524 2.98642
LeftFoot  1.91108 0.636317 -5.57999
LeftToes  -5.36635e-011 -6.70219e-011 5.24975e-011
636
root  44.0659 34.9001 14.3748 161.732 71.4808 68.3813
RightUpLeg  -111.748 -20.5199 -5.18365
RightLeg  35.4516 -2.27245 -2.02001
RightFoot  -13.0331 -0.0483985 2.64746
RightToes  3.49245e-010 0 -3.6325e-017
Spine  -117.374 -21.0639 -14.7519
Spine1  46.2785 -8.30112 9.20069
HEad  -14.5577 -0.479633 -7.09892
LeftShoulder1  -0.072375 3.69521 -31.8125
LeftArm  6.99601 2.49273 -42.0194
LeftForeArm  20.7398 -15.6331 -7.3581
LeftHand  -0.073206 7.52864 -1.60911
RightShoulder  -0.541326 -5.03594 28.5116
RightArm  18.7769 -3.16218 37.874
RightForeArm  1.77009 21.074 4.77369
RightHand  -0.158932 2.14643 -2.63325
LeftUpLeg  -105.936 -14.6627 -23.1345
LeftLeg  42.8939 1.82614 2.19744
LeftFoot  1.45834 0.638962 -5.77441
LeftToes  -5.36635e-011 -6.70219e-011 5.24975e-011
637
root  45.0375 35.2846 14.3597 162.951 72.6947 73.8817
RightUpLeg  -104.813 -19.5707 -5.12656
RightLeg  34.2774 -2.71206 -2.26587
RightFoot  -14.3421 -0.0180264 3.05404
RightToes  3.49245e-010 0 -3.6325e-017
Spine  -112.197 -18.7456 -15.5986
Spine1  44.2107 -7.06854 8.9391
HEad  -14.2119 -0.299399 -5.37649
LeftShoulder1  -0.141531 3.87963 -31.4881
LeftArm  3.98491 4.44092 -40.8626
LeftForeArm  21.927 -14.3567 -7.65567
LeftHand  -0.0772398 7.86505 -1.50508
RightShoulder  -0.609021 -5.20522 29.0543
RightArm  18.9605 -2.41036 36.8799
RightForeArm  1.48699 22.9167 4.86384
RightHand  -0.165603 2.62217 -2.60981
LeftUpLeg  -103.231 -12.9174 -23.6496
LeftLeg  33.6897 1.75953 1.6182
LeftFoot  1.80395 0.631185 -5.56704
LeftToes  -5.36635e-011 -6.70219e-011 5.24975e-011
638
root  45.8817 35.6817 14.3261 161.804 74.6438 79.402
RightUpLeg  -95.8305 -17.7232 -5.10217
RightLeg  33.2634 -2.90617 -2.32994
RightFoot  -15.5038 -0.00439306 2.76764
RightToes  3.49245e-010 0 -3.6325e-017
Spine  -103.807 -15.4149 -15.9596
Spine1  41.3097 -6.15916 9.89989
HEad  -14.4778 -0.555803 -4.22931
LeftShoulder1  -0.0540475 3.64878 -31.2519
LeftArm  0.29754 6.46698 -40.7895
LeftForeArm  23.5574 -13.6527 -7.33024
LeftHand  -0.082666 8.15384 -1.51236
RightShoulder  -0.605994 -5.23319 28.2888
RightArm  18.0323 -1.24912 36.6352
RightForeArm  1.60968 24.3082 5.11182
RightHand  -0.188092 2.92857 -2.85085
LeftUpLeg  -97.8432 -9.60524 -23.1348
LeftLeg  22.3212 2.15479 1.46631
LeftFoot  2.9817 0.786101 -6.38345
LeftToes  -5.36635e-011 -6.70219e-011 5.24975e-011
639
root  46.4968 36.2358 14.1923 155.937 79.3237 85.7605
RightUpLeg  -81.4393 -13.2823 -4.69179
RightLeg  31.7097 -2.54647 -1.96496
RightFoot  -16.508 0.00965492 2.69306
RightToes  3.49245e-010 0 -3.6325e-017
Spine  -87.9657 -4.62031 -12.5162
Spine1  34.9302 -1.1857 7.87643
HEad  -16.8016 -0.884793 -2.84932
LeftShoulder1  -0.00936581 3.52879 -31.3745
LeftArm  -2.45645 8.1042 -39.8215
LeftForeArm  24.5708 -12.4309 -7.27073
LeftHand  -0.0927468 8.12775 -1.89573
RightShoulder  -0.553376 -5.10017 27.8836
RightArm  17.3266 -0.0430662 36.5812
RightForeArm  1.30058 24.9661 5.28101
RightHand  -0.237314 2.47031 -3.70715
LeftUpLeg  -88.6452 -2.29304 -15.8087
LeftLeg  11.2972 7.63855 0.740928
LeftFoot  4.80406 0.8964 -6.55542
LeftToes  -5.36635e-011 -6.70219e-011 5.24975e-011
640
root  47.6715 36.1042 14.0012 155.035 80.8377 85.5497
RightUpLeg  -78.506 -12.4922 -3.73827
RightLeg  31.1817 -2.0264 -1.59025
RightFoot  -18.5095 0.0602926 2.95214
RightToes  3.49245e-010 0 -3.6325e-017
Spine  -88.1163 -2.63465 -11.8285
Spine1  34.5823 -0.337094 7.13694
HEad  -18.2476 -0.128639 -1.48663
LeftShoulder1  0.0263074 3.43183 -30.7315
LeftArm  -4.43798 9.85731 -39.3849
LeftForeArm  25.0422 -11.2372 -7.17905
LeftHand  -0.128051 8.86268 -2.53865
RightShoulder  -0.556294 -5.11509 27.7399
RightArm  16.808 1.27616 37.0014
RightForeArm  0.843579 25.1532 5.34683
RightHand  -0.228906 2.22223 -3.68516
LeftUpLeg  -87.4826 -0.516838 0.374322
LeftLeg  -0.363862 22.4059 -3.39547
LeftFoot  5.8031 0.701834 -4.85732
LeftToes  -5.36635e-011 -6.70219e-011 5.24975e-011
641
root  48.9901 35.7905 13.7424 153.326 81.6368 84.0404
RightUpLeg  -76.3864 -12.5689 -3.27714
RightLeg  31.9487 -1.18902 -1.07568
RightFoot  -21.3289 0.168302 3.57804
RightToes  3.49245e-010 0 -3.6325e-017
Spine  -89.1737 -2.41831 -12.5611
Spine1  34.5871 -0.609504 7.40775
HEad  -19.3479 0.421182 0.303737
LeftShoulder1  0.0400051 3.39281 -30.0781
LeftArm  -6.29245 11.1879 -39.0274
LeftForeArm  26.8079 -9.38023 -7.0545
LeftHand  -0.127259 8.33863 -3.0215
RightShoulder  -0.515384 -4.99842 27.6549
RightArm  15.8689 2.37883 37.836
RightForeArm  0.940078 24.7726 5.25642
RightHand  -0.247878 3.15934 -3.59608
LeftUpLeg  -88.7665 -0.0288506 5.84063
LeftLeg  -3.76355 27.5186 -3.26416
LeftFoot  4.09217 0.581908 -4.5112
LeftToes  -5.36635e-011 -6.70219e-011 5.24975e-011
642
root  50.3026 35.47 13.4567 153.94 82.0392 85.4194
RightUpLeg  -73.6596 -12.8447 -3.47258
RightLeg  33.1011 -0.937718 -0.93991
RightFoot  -24.0602 0.343007 4.53186
RightToes  3.49245e-010 0 -3.6325e-017
Spine  -89.0714 -2.45672 -13.1118
Spine1  34.5507 -0.6263 7.58231
HEad  -20.7055 0.593334 2.02862
LeftShoulder1  -0.00598024 3.51763 -30.3257
LeftArm  -7.04755 10.8536 -37.9805
LeftForeArm  28.1892 -6.85992 -7.00386
LeftHand  -0.139713 8.28663 -3.56956
RightShoulder  -0.571308 -5.15006 27.9366
RightArm  13.717 2.92702 38.6656
RightForeArm  1.93229 24.5213 5.14915
RightHand  -0.229493 2.75811 -3.48897
LeftUpLeg  -89.1855 0.0805766 5.5216
LeftLeg  -4.1117 27.7278 -3.01658
LeftFoot  3.1436 0.815141 -6.45232
LeftToes  -5.36635e-011 -6.70219e-011 5.24975e-011
643
root  51.6233 35.1397 13.1021 156.457 81.416 87.6399
RightUpLeg  -72.0354 -14.132 -4.1541
RightLeg  34.4826 -0.737997 -0.829806
RightFoot  -26.2338 0.62868 6.17006
RightToes  3.49245e-010 0 -3.6325e-017
Spine  -89.9864 -3.59784 -13.7174
Spine1  35.4506 -0.532861 7.34538
HEad  -21.9966 0.376706 3.64097
LeftShoulder1  0.155998 3.0664 -29.8894
LeftArm  -7.95003 11.259 -37.9283
LeftForeArm  28.7079 -5.10652 -6.39519
LeftHand  -0.130023 8.20379 -3.19878
RightShoulder  -0.598253 -5.22636 27.9875
RightArm  12.138 2.59344 39.5683
RightForeArm  2.09356 24.4518 5.12422
RightHand  -0.261052 2.61932 -3.99325
LeftUpLeg  -89.7155 -0.669403 4.64726
LeftLeg  -3.28221 26.2352 -4.23792
LeftFoot  5.73708 0.636692 -4.8977
LeftToes  -5.36635e-011 -6.70219e-011 5.24975e-011
